<svg xmlns="http://www.w3.org/2000/svg" viewBox="0 0 500 500"><g id="freepik--Birds--inject-42"><path d="M121.54,136.61a18.34,18.34,0,0,1,2.37-1,10.11,10.11,0,0,1,2.59-.6,2.14,2.14,0,0,1,.8.09,1.39,1.39,0,0,1,.25.12l.15.11a3.45,3.45,0,0,1,.28.23,12,12,0,0,1,.94.95c.59.65,1.1,1.34,1.62,2l-.64-.23a20,20,0,0,1,2.64-.55,10.3,10.3,0,0,1,1.38-.1,4.56,4.56,0,0,1,.73.05,2.13,2.13,0,0,1,.4.1,3.39,3.39,0,0,1,.39.18,5,5,0,0,1,1.05,1c.28.36.53.73.77,1.11a16.43,16.43,0,0,1,1.23,2.35c-.56-.68-1.11-1.36-1.69-2-.29-.33-.58-.64-.89-.93a4.25,4.25,0,0,0-.93-.72,2.31,2.31,0,0,0-1-.1,9.21,9.21,0,0,0-1.24.17c-.82.14-1.67.35-2.48.57l-.41.11-.24-.33c-.47-.68-1-1.36-1.5-2a9.1,9.1,0,0,0-.8-.92,1.75,1.75,0,0,0-.2-.19L127,136s0,0,0,0a1.28,1.28,0,0,0-.46-.09,12.37,12.37,0,0,0-2.44.24C123.22,136.28,122.38,136.46,121.54,136.61Z" style="fill:#263238"></path><path d="M130.87,161.81a30.29,30.29,0,0,1,3.18-2.18,15,15,0,0,1,3.63-1.63,3.47,3.47,0,0,1,1.21-.11,2.24,2.24,0,0,1,.39.1l.27.13a3.5,3.5,0,0,1,.47.25,18.5,18.5,0,0,1,1.66,1.12c1,.79,2,1.64,3,2.52l-1-.14a31.13,31.13,0,0,1,3.71-1.59,15.86,15.86,0,0,1,2-.54,6.36,6.36,0,0,1,1.1-.14,3.09,3.09,0,0,1,.6,0,3.75,3.75,0,0,1,.64.16,6.61,6.61,0,0,1,1.82,1.16,19.42,19.42,0,0,1,1.47,1.39,24.77,24.77,0,0,1,2.49,3.11c-1-.84-2-1.68-3.08-2.45a16.56,16.56,0,0,0-1.57-1.11,6.66,6.66,0,0,0-1.58-.79,3.55,3.55,0,0,0-1.55.16,15.91,15.91,0,0,0-1.76.6c-1.17.46-2.35,1-3.48,1.58l-.57.28-.44-.43c-.9-.86-1.85-1.7-2.8-2.5a16.44,16.44,0,0,0-1.44-1.12l-.35-.22-.16-.09s0,0-.07,0a1.75,1.75,0,0,0-.69,0,18.49,18.49,0,0,0-3.52,1.06C133.24,160.84,132.06,161.34,130.87,161.81Z" style="fill:#263238"></path><path d="M381.6,200a21.22,21.22,0,0,1,2.18-1.39,10.09,10.09,0,0,1,2.45-1,2.33,2.33,0,0,1,.81,0l.26.07.18.09.31.18a11.12,11.12,0,0,1,1.08.79c.68.55,1.3,1.13,1.93,1.74l-.67-.12a20.7,20.7,0,0,1,2.51-1c.44-.12.88-.24,1.35-.32.23,0,.47-.06.73-.07a3,3,0,0,1,.41,0l.42.12a4.81,4.81,0,0,1,1.19.82c.34.31.65.63.95,1a17.32,17.32,0,0,1,1.6,2.12c-.67-.57-1.33-1.16-2-1.7a12.26,12.26,0,0,0-1-.76,4.5,4.5,0,0,0-1-.57,2.52,2.52,0,0,0-1,.07,10.22,10.22,0,0,0-1.19.37c-.8.28-1.6.62-2.36,1l-.39.18-.28-.29c-.58-.6-1.2-1.18-1.82-1.73a11,11,0,0,0-.93-.78l-.23-.15-.11-.06s0,0,0,0a1.11,1.11,0,0,0-.46,0,12.82,12.82,0,0,0-2.37.63C383.21,199.35,382.41,199.66,381.6,200Z" style="fill:#263238"></path><path d="M360.47,196.53a28,28,0,0,1,2.4-3,14.66,14.66,0,0,1,3-2.64,3.23,3.23,0,0,1,1.12-.45,1.71,1.71,0,0,1,.41,0l.29,0c.19,0,.35.07.52.1.68.16,1.3.37,1.92.58,1.24.45,2.41,1,3.59,1.53l-1,.16a28.48,28.48,0,0,1,3.07-2.62,16.25,16.25,0,0,1,1.75-1.11,7.06,7.06,0,0,1,1-.46,3.39,3.39,0,0,1,.59-.15,4.73,4.73,0,0,1,.65,0,6.89,6.89,0,0,1,2.09.57c.63.27,1.23.57,1.82.89a25.46,25.46,0,0,1,3.3,2.23c-1.23-.49-2.44-1-3.67-1.43a18.42,18.42,0,0,0-1.83-.58,6.39,6.39,0,0,0-1.74-.29,3.61,3.61,0,0,0-1.43.61,12.78,12.78,0,0,0-1.5,1.1c-1,.79-2,1.66-2.87,2.54l-.46.43-.55-.27c-1.11-.56-2.27-1.08-3.41-1.56a17.75,17.75,0,0,0-1.7-.64,4.1,4.1,0,0,0-.4-.11l-.19,0a.09.09,0,0,0-.07,0,2.13,2.13,0,0,0-.66.2,19.4,19.4,0,0,0-3,2.06C362.45,194.9,361.47,195.72,360.47,196.53Z" style="fill:#263238"></path><path d="M100.71,155.63a29.13,29.13,0,0,1,2.4-3,15.21,15.21,0,0,1,3-2.63,3.31,3.31,0,0,1,1.12-.46,2.62,2.62,0,0,1,.41,0l.29,0a4.51,4.51,0,0,1,.53.1,18.66,18.66,0,0,1,1.92.58c1.23.44,2.4,1,3.58,1.52l-1,.17a28.32,28.32,0,0,1,3.07-2.62,16.32,16.32,0,0,1,1.75-1.12,9.16,9.16,0,0,1,1-.45,3.65,3.65,0,0,1,.59-.16,3.61,3.61,0,0,1,.66,0,6.91,6.91,0,0,1,2.08.57,18,18,0,0,1,1.82.89,26.44,26.44,0,0,1,3.3,2.22c-1.23-.48-2.44-1-3.67-1.42-.61-.22-1.22-.43-1.83-.59a6.35,6.35,0,0,0-1.74-.28,3.57,3.57,0,0,0-1.43.6,16.9,16.9,0,0,0-1.5,1.1c-1,.79-2,1.67-2.87,2.54l-.45.44-.55-.28c-1.12-.55-2.27-1.07-3.41-1.55a13.77,13.77,0,0,0-1.71-.64,3.45,3.45,0,0,0-.4-.11l-.19,0a.11.11,0,0,0-.06,0,1.87,1.87,0,0,0-.67.2,19.4,19.4,0,0,0-3,2.06C102.69,154,101.72,154.82,100.71,155.63Z" style="fill:#263238"></path></g><g id="freepik--Floor--inject-42"><polygon points="43.05 450.94 94.79 450.69 146.53 450.61 250 450.44 353.47 450.6 405.21 450.69 456.95 450.94 405.21 451.18 353.47 451.27 250 451.44 146.53 451.27 94.79 451.18 43.05 450.94" style="fill:#263238"></polygon><rect x="48.87" y="445.03" width="402.27" height="5.83" style="fill:#c7c7c7"></rect><path d="M77.07,445a8.48,8.48,0,0,1,.48,2.92,8.23,8.23,0,0,1-.48,2.91,8,8,0,0,1-.48-2.91A8.25,8.25,0,0,1,77.07,445Z" style="fill:#263238"></path><path d="M108.51,445a9.09,9.09,0,0,1,0,5.83,9.09,9.09,0,0,1,0-5.83Z" style="fill:#263238"></path><path d="M140,445a8.25,8.25,0,0,1,.48,2.92,8,8,0,0,1-.48,2.91,9.09,9.09,0,0,1,0-5.83Z" style="fill:#263238"></path><path d="M171.39,445a9.09,9.09,0,0,1,0,5.83,9.27,9.27,0,0,1,0-5.83Z" style="fill:#263238"></path><path d="M202.84,445a8.23,8.23,0,0,1,.47,2.92,8,8,0,0,1-.47,2.91,9.09,9.09,0,0,1,0-5.83Z" style="fill:#263238"></path><path d="M234.28,445a9.09,9.09,0,0,1,0,5.83,8,8,0,0,1-.48-2.91A8.25,8.25,0,0,1,234.28,445Z" style="fill:#263238"></path><path d="M265.72,445a8.25,8.25,0,0,1,.48,2.92,8,8,0,0,1-.48,2.91,9.09,9.09,0,0,1,0-5.83Z" style="fill:#263238"></path><path d="M297.16,445a9.09,9.09,0,0,1,0,5.83,8,8,0,0,1-.47-2.91A8.23,8.23,0,0,1,297.16,445Z" style="fill:#263238"></path><path d="M328.61,445a9.27,9.27,0,0,1,0,5.83,9.09,9.09,0,0,1,0-5.83Z" style="fill:#263238"></path><path d="M360.05,445a9.09,9.09,0,0,1,0,5.83,8,8,0,0,1-.48-2.91A8.25,8.25,0,0,1,360.05,445Z" style="fill:#263238"></path><path d="M391.49,445a9.09,9.09,0,0,1,0,5.83,9.09,9.09,0,0,1,0-5.83Z" style="fill:#263238"></path><path d="M422.93,445a8.25,8.25,0,0,1,.48,2.92,8,8,0,0,1-.48,2.91,8.23,8.23,0,0,1-.48-2.91A8.48,8.48,0,0,1,422.93,445Z" style="fill:#263238"></path></g><g id="freepik--Trees--inject-42"><path d="M70.83,378.56s18,39.94-11.37,40-10.37-41.3-10.37-41.3-6.8-3,1.06-25.28,11.38-22.3,14.65-22.3c4.14,0,8,9.64,5.19,24.45C70,354.1,80.34,372.57,70.83,378.56Z" style="fill:#37474f"></path><polygon points="56.89 445.03 59.65 384.84 62.55 445.02 56.89 445.03" style="fill:#263238"></polygon><polygon points="58.53 410.07 69.18 397.6 60.83 411.72 58.53 410.07" style="fill:#263238"></polygon><path d="M77.44,383.61s-8.27-3.27-14.82,8.16c-6.72,11.71,1.72,19.42,8.41,14.82,0,0,5.26,11,15.76,8.38s12.19-11,12.19-11,9.32.65,9.58-6.31S102,384.51,102,384.51s-.41-17.33-11.7-17.18S77.44,383.61,77.44,383.61Z" style="fill:#455a64"></path><polygon points="85.18 445 87.49 393.45 89.91 444.99 85.18 445" style="fill:#263238"></polygon><polygon points="86.81 412.82 79.55 398.37 88 410.56 86.81 412.82" style="fill:#263238"></polygon><path d="M436.58,371S456.53,415.3,424,415.33s-11.5-45.8-11.5-45.8-7.54-3.31,1.17-28,12.62-24.73,16.25-24.73c4.59,0,8.87,10.69,5.76,27.12C435.65,343.88,447.13,364.37,436.58,371Z" style="fill:#37474f"></path><polygon points="421.12 444.72 424.18 377.97 427.39 444.71 421.12 444.72" style="fill:#263238"></polygon><polygon points="422.94 405.96 434.75 392.12 425.49 407.78 422.94 405.96" style="fill:#263238"></polygon><path d="M305.86,387.5s-15.47,34.57,9.91,34.54,8.89-35.74,8.89-35.74,5.88-2.59-1-21.85-9.88-19.26-12.71-19.26c-3.58,0-6.9,8.35-4.44,21.16C306.55,366.35,297.63,382.34,305.86,387.5Z" style="fill:#37474f"></path><polygon points="318.05 444.95 315.55 392.91 313.16 444.95 318.05 444.95" style="fill:#263238"></polygon><polygon points="316.56 414.73 307.33 403.96 314.58 416.15 316.56 414.73" style="fill:#263238"></polygon><path d="M386.17,375.83s-9.29-3.67-16.64,9.15c-7.54,13.16,1.94,21.81,9.45,16.65,0,0,5.9,12.37,17.69,9.41s13.69-12.4,13.69-12.4,10.46.73,10.75-7.08-7.38-14.73-7.38-14.73-.47-19.45-13.14-19.29S386.17,375.83,386.17,375.83Z" style="fill:#455a64"></path><polygon points="394.86 444.75 397.45 386.87 400.17 444.75 394.86 444.75" style="fill:#263238"></polygon><polygon points="396.66 408.56 388.54 392.39 398.26 406.06 396.66 408.56" style="fill:#263238"></polygon></g><g id="freepik--Character--inject-42"><polygon points="211.96 422.59 217.62 425.9 238.49 386.07 232.84 382.77 211.96 422.59" style="fill:#c7c7c7"></polygon><rect x="200.5" y="421.04" width="28.94" height="8.4" style="fill:#263238"></rect><path d="M196.62,351S182,393.17,182,393.2c-.57,8.39-.91,15.76-.74,19.59a.2.2,0,0,0,0,.07,5.8,5.8,0,0,0,.44,2.63l.05.06c2.38,1.86,69.33,8.33,71.74,7.77s1-7.47-1.39-9.8-26.93-16.27-26.93-16.27l14.16-42.19Z" style="fill:#ad6359"></path><path d="M252.56,423.45c-2.41.56-68.38-6.05-70.76-7.9l-.05-.06a6.06,6.06,0,0,1-.45-2.63.11.11,0,0,1,0-.06c-.18-3.83.17-11.21.72-19.6,0,0,1.88-5.41,3.49-10.1L228,389l-2.77,8.26s23.54,14.08,25.94,16.4S255,422.9,252.56,423.45Z" style="fill:#ebebeb"></path><path d="M253.31,422.3c-2.45.51-69.77-7.59-72.13-9.53-.91-.72-.3-10.6.77-22.51l0-.38,43.49,4.74-.1.74s24.38,14.62,26.75,17S255.76,421.8,253.31,422.3Z" style="fill:#455a64"></path><path d="M252.86,419.6c-11.31-1.65-57.1-7.21-68.41-8-.09,0-.1.06,0,.07,11.18,1.88,57,7.07,68.4,8.09C253.08,419.8,253.1,419.63,252.86,419.6Z" style="fill:#fff"></path><path d="M229,395.93c-4.37-1.37-9.91-1.34-13.71,1.43-.14.1,0,.31.16.28a64,64,0,0,1,13.46-1.15A.29.29,0,0,0,229,395.93Z" style="fill:#fff"></path><path d="M232,398.26c-4.37-1.37-9.91-1.34-13.71,1.43-.14.1,0,.31.16.28a63.93,63.93,0,0,1,13.46-1.15A.29.29,0,0,0,232,398.26Z" style="fill:#fff"></path><path d="M235,400.59c-4.37-1.37-9.91-1.34-13.71,1.43-.14.11,0,.31.16.28a63.93,63.93,0,0,1,13.46-1.15A.29.29,0,0,0,235,400.59Z" style="fill:#fff"></path><path d="M254.63,420c1.15.61.4,4.62-.51,4.84s-74.27-8.93-75.48-9.36-.22-4.86,1.26-4.91S254.63,420,254.63,420Z" style="fill:#B3195C"></path><path d="M192.2,398.76c-4.59-3-9.3,4.1-4.71,7.13S196.79,401.79,192.2,398.76Z" style="fill:#fff"></path><path d="M231.22,387.17l-47.34-10.5s46.6-100.09,42.35-109.09c-2.2-4.65-38.71-16.29-54.6-33.12-16.83-17.81,2.29-46.52,2.29-46.52l45.38,1.43s-.81,12.3,1.1,14c1.25,1.12,57.59,33.1,59.64,50.79C283.61,284.75,231.22,387.17,231.22,387.17Z" style="fill:#37474f"></path><path d="M232.49,378.39c-5.31-1.61-10.69-2.93-16.08-4.24s-10.8-2.54-16.24-3.64c-3.07-.62-6.17-1.08-9.24-1.68-.09,0-.14.14,0,.17,2.71.65,5.39,1.47,8.1,2.14s5.34,1.31,8,1.93c5.4,1.27,10.82,2.46,16.23,3.7,3,.69,6.11,1.29,9.19,1.85C232.56,378.64,232.62,378.43,232.49,378.39Z" style="fill:#263238"></path><path d="M250,266.19c-.84-1.18-2.46-1.77-3.69-2.43L241.22,261q-5.07-2.73-10.15-5.45-10.14-5.46-20.3-10.91c-5.84-3.13-11.89-6-17.3-9.89C188.3,231.1,184,226.38,182,220.3s-2.07-12.89-1.69-19.35c.09-1.62.22-3.23.37-4.85,0-.14-.21-.14-.22,0-.59,6.4-1.25,12.86-.27,19.25a28.1,28.1,0,0,0,7.71,15.8c4.26,4.29,9.57,7.33,14.83,10.2q9.9,5.38,19.83,10.71,10.14,5.48,20.29,10.94c1.62.88,3.25,1.74,4.87,2.63a3.29,3.29,0,0,1,1.7,1.52c.34.92-.22,2-.55,2.86q-2,5.22-4,10.44-8.25,21.12-16.8,42.12t-17.36,41.66c-.74,1.75-1.49,3.49-2.23,5.23-.12.27.28.5.4.23q9.16-20.81,17.91-41.78t17.07-42.14q2-5.17,4.05-10.38l2-5.13C250.3,269,250.9,267.47,250,266.19Z" style="fill:#263238"></path><path d="M208.56,148.12c4.67,19,13.32,42.2,17.58,45.73,9.16,7.6,27,17.35,39,20.28,3.91,1,10.49-25.51,6.43-26.95-3-1.07-28.51-10.51-29.81-11.83-1.05-1.06-14-20.63-22.38-33.15C210.45,128.84,205.62,136.14,208.56,148.12Z" style="fill:#ad6359"></path><path d="M281.15,216.46c-1.77,0-1.76,1,.78,2.86s14.19,7.14,12,11.05-18.51-3.76-22.5-7.21-9.24-10.42-9.24-10.42C265.68,213.59,274.31,214.87,281.15,216.46Z" style="fill:#ad6359"></path><path d="M270.84,187.22c15.8,3.38,22.39,6.39,30.24,14.63a5.67,5.67,0,0,1,1.62,3.32c3.58,3.64,2.94,6.42,2.94,6.42,2.3,4.41,1.26,7.17,1.26,7.17s4.16,4.31,2,7.26c-2.44,3.31-7.81-3.39-13-5.28-11.92-4.31-30.08-7.1-33.65-8Z" style="fill:#ad6359"></path><path d="M286.53,207.44a80.85,80.85,0,0,1,10.23,4.37,83.08,83.08,0,0,1,10,7,.1.1,0,0,0,.13-.15,43.21,43.21,0,0,0-20.3-11.34C286.41,207.24,286.36,207.37,286.53,207.44Z" style="fill:#263238"></path><path d="M288.09,199.86c3.32,1.49,9.13,4.15,17.47,11.82,0,0,.08,0,.05,0a38.76,38.76,0,0,0-17.45-11.94C287.94,199.63,287.87,199.76,288.09,199.86Z" style="fill:#263238"></path><path d="M289,195.81c5.55,2.75,8.69,5.18,13.66,9.37,0,0,.08,0,0-.05-5.15-5.35-7.62-6.71-13.64-9.53C288.86,195.51,288.78,195.7,289,195.81Z" style="fill:#263238"></path><path d="M272,184.65l-12.54,31.12s-32.33-12.67-35.71-20.86S208.89,156.74,207.7,144c-1.43-15.37,7-11.84,14-.69,6.14,9.91,19.71,30.09,20.74,30.87S272,184.65,272,184.65Z" style="fill:#B3195C"></path><path d="M260.26,213.86l-.77,1.91s-32.33-12.66-35.71-20.86S208.89,156.75,207.7,144c-.58-6.23.47-9.35,2.38-10.11Z" style="opacity:0.1"></path><path d="M264.9,184.63a69.73,69.73,0,0,0-3.07,6.41c-1,2.23-1.94,4.48-2.87,6.73s-1.85,4.51-2.7,6.79-1.61,4.58-2.33,6.92a.08.08,0,0,0,.15.05c1-2.22,2.08-4.42,3-6.68s1.82-4.43,2.73-6.65,1.79-4.44,2.68-6.66,1.85-4.51,2.55-6.83A.09.09,0,0,0,264.9,184.63Z" style="fill:#263238"></path><polygon points="173.6 249.04 186.51 277.87 193.12 277.87 180.22 249.05 173.6 249.04" style="fill:#37474f"></polygon><path d="M148.72,242.55C143.66,252,172.5,254,184.84,251.8s29.25,1.46,29.25-5.44S158.16,224.94,148.72,242.55Z" style="fill:#263238"></path><rect x="179.55" y="264.74" width="11.45" height="2.61" transform="translate(370.55 532.09) rotate(180)" style="fill:#37474f"></rect><path d="M240.67,384.14l-1.43,1.41c-1.35,1.32-4.28,1.33-5.14-.66q-3.1-7.26-6.2-14.54c-14.32-33.54-32-69.46-46.31-103h7.1c2,4.66,34.15,75,49.32,110.21l0,0,.11.26c.57,1.3,1.1,2.55,1.61,3.75h-.11Z" style="fill:#B3195C"></path><path d="M322.77,303.18l-2.16,2.13q-39.58,39-79.17,78.07l-2,1.94-1-2.57h.11c-.51-1.19-1-2.45-1.61-3.75l-.11-.25,0,0q4.17-4.08,8.32-8.19L320.69,296C321.39,298.42,322.07,300.8,322.77,303.18Z" style="fill:#B3195C"></path><path d="M240.68,381.58l-1.5-3.74q.85,1.95,1.62,3.75Z" style="fill:#B3195C"></path><path d="M366.19,379,342.5,356.13c-4.35-4.22-6.14-6.19-7.77-11.84q-4.35-14.9-8.67-29.78-1.63-5.65-3.3-11.33c-.69-2.38-1.37-4.76-2.07-7.15-1.53-5.29-3.91-13.47-6.38-21.92h6.81c.74,2.48,1.35,4.58,1.78,6.06L326,290.8q1,3.58,2.08,7.16,6.68,23,13.38,46c.28.92.61,1.86.83,2.79,2.85,2.71,5.67,5.5,8.5,8.24l20,19.34C373.86,377.3,369.22,381.94,366.19,379Z" style="fill:#B3195C"></path><path d="M235.24,380H127.81l2.83,4.93,52.83-92.58L191,279l-2.83,1.62h128c4.21,0,4.22-6.55,0-6.55h-128a3.3,3.3,0,0,0-2.82,1.62l-52.83,92.58Q128.78,375,125,381.58a3.3,3.3,0,0,0,2.82,4.93H235.24c4.21,0,4.22-6.55,0-6.55Z" style="fill:#B3195C"></path><path d="M136.31,312.27c.06,5.6-.15,11.18-.56,16.75-.25,2.78-.59,5.56-.79,8.35s-.3,5.57-.37,8.37c-.11,5.58-.36,11.16-.68,16.74s-.85,11.14-1.55,16.69h-.12c0-5.59.16-11.18.43-16.76s.74-11.14,1.29-16.7c.26-2.78.49-5.57.62-8.36s.12-5.58.2-8.38c.25-5.58.69-11.14,1.41-16.7Z" style="fill:#a6a6a6"></path><path d="M124.63,312.59c1,5.5,1.79,11,2.36,16.59.23,2.79.39,5.58.67,8.36s.67,5.54,1.09,8.31c.87,5.52,1.59,11.06,2.23,16.6s1.1,11.12,1.38,16.71h-.12c-1-5.5-1.78-11-2.49-16.57s-1.2-11.11-1.63-16.68c-.22-2.79-.48-5.57-.84-8.34s-.85-5.52-1.25-8.28c-.73-5.54-1.26-11.1-1.51-16.7Z" style="fill:#a6a6a6"></path><path d="M113.19,314.93c2,5.24,3.68,10.56,5.2,15.94.72,2.7,1.35,5.42,2.11,8.11s1.63,5.34,2.52,8c1.81,5.29,3.48,10.61,5.08,16s3,10.75,4.26,16.21l-.11,0c-1.95-5.24-3.68-10.56-5.33-15.89s-3.12-10.73-4.51-16.14c-.7-2.7-1.44-5.4-2.27-8.06s-1.8-5.29-2.68-7.95c-1.68-5.32-3.16-10.71-4.38-16.17Z" style="fill:#a6a6a6"></path><path d="M102.32,319.23c2.86,4.82,5.46,9.76,7.89,14.79,1.18,2.53,2.28,5.1,3.49,7.62s2.53,5,3.87,7.43c2.7,4.89,5.27,9.85,7.78,14.84s4.83,10.07,7,15.23l-.1.05c-2.83-4.83-5.45-9.76-8-14.72s-4.93-10-7.24-15.12c-1.16-2.54-2.35-5.06-3.64-7.54s-2.69-4.9-4-7.36c-2.58-5-5-10-7.13-15.17Z" style="fill:#a6a6a6"></path><path d="M92.37,325.35c3.65,4.24,7.07,8.66,10.34,13.19,1.6,2.29,3.13,4.63,4.76,6.9s3.35,4.46,5.1,6.64c3.51,4.35,6.9,8.79,10.23,13.27s6.51,9.08,9.55,13.78l-.09.07c-3.63-4.26-7.07-8.66-10.45-13.11s-6.6-9-9.75-13.63c-1.59-2.3-3.2-4.58-4.9-6.8s-3.5-4.35-5.23-6.54c-3.4-4.44-6.64-9-9.65-13.7Z" style="fill:#a6a6a6"></path><path d="M83.63,333.1c4.33,3.55,8.47,7.3,12.47,11.2,2,2,3.89,4,5.89,6s4.08,3.82,6.18,5.66c4.21,3.68,8.32,7.46,12.38,11.29s8,7.81,11.79,11.91l-.08.09c-4.31-3.57-8.46-7.31-12.56-11.1s-8.06-7.73-12-11.73c-2-2-4-3.95-6-5.84s-4.21-3.68-6.29-5.54c-4.12-3.78-8.1-7.7-11.89-11.82Z" style="fill:#a6a6a6"></path><path d="M76.37,342.25C81.25,345,86,348,90.6,351.11c2.28,1.61,4.52,3.28,6.83,4.86s4.68,3,7.07,4.5c4.78,2.88,9.49,5.89,14.15,9s9.22,6.31,13.68,9.69l-.06.09c-4.87-2.76-9.6-5.72-14.3-8.74s-9.28-6.22-13.82-9.47c-2.28-1.62-4.58-3.21-6.93-4.72s-4.78-2.89-7.16-4.36c-4.7-3-9.3-6.17-13.75-9.57Z" style="fill:#a6a6a6"></path><path d="M70.81,352.52c5.28,1.86,10.45,4,15.55,6.26,2.53,1.18,5,2.45,7.57,3.59s5.14,2.19,7.74,3.21c5.21,2,10.37,4.16,15.5,6.37s10.18,4.61,15.15,7.16l0,.11c-5.27-1.88-10.45-4-15.6-6.13s-10.22-4.51-15.26-6.93c-2.52-1.2-5.06-2.36-7.64-3.44s-5.21-2-7.81-3.05c-5.15-2.14-10.24-4.47-15.21-7Z" style="fill:#a6a6a6"></path><path d="M67.12,363.6c5.52.91,11,2.09,16.4,3.47,2.69.72,5.37,1.53,8.08,2.22s5.44,1.27,8.18,1.81c5.48,1.08,10.93,2.3,16.37,3.59s10.82,2.77,16.17,4.42l0,.11c-5.52-.93-11-2.09-16.43-3.33s-10.85-2.66-16.23-4.17c-2.69-.74-5.4-1.45-8.12-2.06S86,368.57,83.29,368c-5.45-1.21-10.86-2.62-16.2-4.29Z" style="fill:#a6a6a6"></path><path d="M65.41,375.16c5.59-.06,11.18.15,16.75.56,2.78.25,5.56.58,8.34.79s5.58.3,8.37.36c5.59.11,11.17.36,16.74.69s11.14.85,16.7,1.55v.11c-5.6,0-11.18-.15-16.76-.42s-11.14-.74-16.71-1.29c-2.78-.26-5.56-.49-8.35-.62s-5.59-.12-8.38-.2c-5.58-.25-11.15-.69-16.7-1.41Z" style="fill:#a6a6a6"></path><path d="M65.73,386.84c5.5-1,11-1.8,16.59-2.36,2.78-.24,5.58-.39,8.35-.67s5.55-.67,8.31-1.1c5.52-.86,11.06-1.58,16.61-2.23s11.12-1.09,16.71-1.37v.11c-5.51,1-11,1.79-16.58,2.49s-11.1,1.21-16.68,1.64c-2.78.22-5.56.48-8.33.83s-5.52.86-8.29,1.26c-5.54.73-11.1,1.26-16.69,1.51Z" style="fill:#a6a6a6"></path><path d="M68.07,398.28c5.24-2,10.56-3.68,15.93-5.2,2.7-.72,5.43-1.35,8.11-2.11s5.35-1.63,8-2.52c5.29-1.81,10.62-3.48,16-5.08s10.76-3,16.22-4.26l0,.11c-5.25,1.95-10.56,3.68-15.89,5.33s-10.73,3.12-16.14,4.51c-2.71.7-5.4,1.44-8.07,2.27s-5.29,1.8-7.94,2.68c-5.33,1.67-10.71,3.16-16.18,4.38Z" style="fill:#a6a6a6"></path><path d="M72.37,409.14c4.81-2.85,9.75-5.45,14.78-7.88,2.54-1.18,5.11-2.28,7.62-3.49s5-2.53,7.43-3.87c4.9-2.7,9.86-5.27,14.85-7.78s10.07-4.83,15.23-7l.05.11c-4.83,2.83-9.76,5.45-14.73,8s-10,4.93-15.11,7.24c-2.54,1.16-5.07,2.35-7.55,3.63s-4.9,2.7-7.35,4c-5,2.58-10,5-15.17,7.13Z" style="fill:#a6a6a6"></path><path d="M78.48,419.1c4.25-3.65,8.66-7.07,13.19-10.34,2.3-1.6,4.64-3.13,6.9-4.76s4.47-3.35,6.65-5.1c4.35-3.51,8.79-6.9,13.27-10.24s9.08-6.5,13.78-9.54l.07.09c-4.27,3.63-8.67,7.07-13.11,10.45s-9,6.6-13.63,9.75c-2.3,1.59-4.58,3.2-6.8,4.89s-4.36,3.5-6.55,5.24c-4.43,3.39-9,6.63-13.7,9.65Z" style="fill:#a6a6a6"></path><path d="M86.23,427.84c3.55-4.33,7.31-8.47,11.2-12.47,2-2,4-3.89,6-5.89s3.81-4.08,5.66-6.18c3.67-4.21,7.45-8.32,11.29-12.38s7.81-8,11.91-11.79l.08.08c-3.56,4.31-7.3,8.46-11.09,12.56s-7.73,8.06-11.73,12c-2,2-4,3.95-5.85,6s-3.68,4.2-5.54,6.29c-3.77,4.12-7.69,8.1-11.81,11.89Z" style="fill:#a6a6a6"></path><path d="M95.38,435.1c2.75-4.88,5.73-9.61,8.87-14.23,1.6-2.28,3.28-4.52,4.85-6.83s3.05-4.68,4.5-7.07c2.89-4.78,5.9-9.49,9-14.15s6.3-9.23,9.68-13.69l.1.07c-2.76,4.86-5.72,9.6-8.75,14.3s-6.21,9.28-9.47,13.82c-1.62,2.28-3.21,4.58-4.71,6.93s-2.9,4.78-4.37,7.15c-3,4.71-6.17,9.31-9.57,13.76Z" style="fill:#a6a6a6"></path><path d="M105.66,440.66c1.85-5.28,4-10.46,6.26-15.55,1.18-2.53,2.44-5,3.59-7.57s2.19-5.14,3.2-7.74c2-5.22,4.16-10.37,6.38-15.5s4.6-10.18,7.16-15.16l.11.05c-1.88,5.27-4,10.45-6.14,15.6s-4.5,10.22-6.92,15.26c-1.2,2.52-2.37,5.06-3.44,7.64s-2,5.21-3.06,7.8c-2.14,5.16-4.46,10.24-7,15.21Z" style="fill:#a6a6a6"></path><path d="M116.74,444.35c.91-5.52,2.09-11,3.46-16.4.73-2.7,1.54-5.37,2.23-8.08s1.26-5.44,1.81-8.18c1.08-5.48,2.29-10.93,3.58-16.37s2.77-10.82,4.43-16.17l.11,0c-.94,5.52-2.1,11-3.33,16.43s-2.66,10.85-4.17,16.23c-.74,2.69-1.45,5.39-2.07,8.12s-1.08,5.48-1.65,8.22c-1.21,5.45-2.61,10.85-4.29,16.2Z" style="fill:#a6a6a6"></path><path d="M128.3,446.06c-.07-5.6.15-11.18.56-16.75.25-2.78.58-5.56.79-8.34s.3-5.58.36-8.37c.11-5.59.36-11.17.69-16.75s.85-11.13,1.54-16.69h.12c0,5.6-.16,11.18-.43,16.76s-.74,11.14-1.28,16.7c-.27,2.79-.5,5.57-.63,8.36s-.12,5.59-.2,8.38c-.24,5.58-.69,11.15-1.41,16.7Z" style="fill:#a6a6a6"></path><path d="M140,445.74c-1-5.5-1.79-11-2.35-16.59-.24-2.79-.39-5.58-.67-8.36s-.68-5.54-1.1-8.3c-.86-5.52-1.58-11.06-2.23-16.61s-1.1-11.12-1.38-16.71h.12c1,5.5,1.79,11,2.49,16.58s1.21,11.1,1.63,16.67c.22,2.79.48,5.57.84,8.34s.85,5.52,1.26,8.29c.73,5.53,1.25,11.09,1.51,16.69Z" style="fill:#a6a6a6"></path><path d="M151.42,443.4c-2-5.24-3.68-10.56-5.2-15.93-.72-2.7-1.36-5.43-2.12-8.12s-1.62-5.34-2.52-8c-1.81-5.28-3.48-10.61-5.08-16s-3-10.76-4.25-16.22l.11,0c1.95,5.25,3.67,10.56,5.33,15.89s3.12,10.73,4.5,16.14c.71,2.71,1.44,5.4,2.27,8.07s1.8,5.29,2.68,7.94c1.68,5.33,3.17,10.71,4.39,16.17Z" style="fill:#a6a6a6"></path><path d="M162.28,439.1c-2.85-4.81-5.46-9.75-7.89-14.78-1.17-2.54-2.27-5.11-3.49-7.63s-2.53-5-3.87-7.43c-2.7-4.89-5.27-9.85-7.77-14.84s-4.84-10.07-7-15.23l.1-.05c2.84,4.83,5.46,9.76,8,14.73s4.94,10,7.24,15.11c1.16,2.54,2.36,5.06,3.64,7.55s2.69,4.89,4,7.35c2.57,5,5,10,7.12,15.17Z" style="fill:#a6a6a6"></path><path d="M172.23,433c-3.64-4.25-7.07-8.67-10.33-13.2-1.6-2.29-3.13-4.63-4.76-6.9s-3.36-4.46-5.1-6.64c-3.51-4.35-6.91-8.79-10.24-13.27s-6.51-9.08-9.54-13.78l.09-.07c3.63,4.26,7.06,8.67,10.44,13.11s6.6,9,9.76,13.63c1.58,2.3,3.2,4.58,4.89,6.8s3.5,4.36,5.23,6.55c3.4,4.43,6.64,9,9.66,13.7Z" style="fill:#a6a6a6"></path><path d="M181,425.23c-4.33-3.55-8.47-7.3-12.47-11.19-2-2-3.88-4-5.88-6s-4.08-3.81-6.18-5.66c-4.21-3.68-8.32-7.45-12.39-11.29s-8-7.81-11.79-11.91l.08-.09c4.31,3.57,8.47,7.31,12.56,11.1S153,398,156.88,402c2,2,3.94,3.95,6,5.85s4.2,3.68,6.29,5.53c4.11,3.78,8.09,7.7,11.88,11.82Z" style="fill:#a6a6a6"></path><path d="M188.23,416.08c-4.88-2.74-9.6-5.72-14.22-8.86-2.29-1.6-4.53-3.28-6.84-4.85s-4.68-3.05-7.06-4.5c-4.79-2.89-9.49-5.9-14.16-9s-9.22-6.31-13.68-9.69l.06-.09c4.87,2.76,9.61,5.72,14.3,8.75s9.29,6.21,13.83,9.46c2.27,1.62,4.57,3.21,6.92,4.72s4.78,2.9,7.16,4.36c4.71,3,9.31,6.18,13.76,9.58Z" style="fill:#a6a6a6"></path><path d="M193.79,405.81c-5.28-1.86-10.45-4-15.54-6.26-2.53-1.18-5-2.45-7.58-3.59s-5.13-2.19-7.74-3.21c-5.21-2-10.37-4.15-15.5-6.37s-10.17-4.61-15.15-7.16l0-.11c5.28,1.88,10.46,4,15.61,6.14s10.22,4.5,15.26,6.92c2.52,1.2,5.06,2.37,7.63,3.44s5.21,2,7.81,3.06c5.16,2.14,10.24,4.46,15.21,7Z" style="fill:#a6a6a6"></path><path d="M197.49,394.73c-5.53-.91-11-2.09-16.4-3.47-2.7-.72-5.38-1.53-8.08-2.22s-5.44-1.26-8.18-1.81c-5.49-1.08-10.94-2.3-16.37-3.59s-10.82-2.77-16.17-4.42l0-.11c5.51.93,11,2.09,16.42,3.33s10.85,2.66,16.23,4.17c2.7.74,5.4,1.45,8.12,2.06s5.49,1.09,8.22,1.65c5.45,1.22,10.86,2.62,16.2,4.29Z" style="fill:#a6a6a6"></path><path d="M199.2,383.17c-5.6.06-11.18-.15-16.75-.56-2.78-.25-5.56-.58-8.35-.79s-5.57-.3-8.37-.36c-5.59-.11-11.16-.36-16.74-.69s-11.14-.85-16.69-1.55v-.11c5.59,0,11.17.15,16.75.42s11.15.74,16.71,1.29c2.78.27,5.57.5,8.35.63s5.59.11,8.38.19c5.58.25,11.15.7,16.7,1.42Z" style="fill:#a6a6a6"></path><path d="M198.88,371.49c-5.51,1-11,1.8-16.6,2.36-2.78.24-5.57.39-8.35.67s-5.55.68-8.31,1.1c-5.52.86-11.06,1.58-16.6,2.23s-11.12,1.1-16.71,1.37v-.11c5.5-1,11-1.79,16.57-2.49S160,375.41,165.55,375c2.78-.23,5.57-.49,8.34-.84s5.52-.86,8.28-1.26c5.54-.73,11.1-1.26,16.69-1.51Z" style="fill:#a6a6a6"></path><path d="M196.53,360.05c-5.24,2-10.55,3.68-15.93,5.2-2.7.72-5.42,1.36-8.11,2.11s-5.34,1.63-8,2.53c-5.29,1.8-10.62,3.48-16,5.08s-10.75,3-16.21,4.25l0-.11c5.24-1.95,10.55-3.68,15.89-5.33s10.72-3.12,16.14-4.5c2.7-.71,5.4-1.44,8.06-2.28s5.29-1.8,7.94-2.68c5.33-1.67,10.72-3.16,16.18-4.38Z" style="fill:#a6a6a6"></path><path d="M192.24,349.19c-4.82,2.85-9.76,5.46-14.79,7.89-2.53,1.17-5.1,2.27-7.62,3.49s-5,2.52-7.43,3.86c-4.89,2.7-9.85,5.28-14.84,7.78s-10.07,4.83-15.23,7l-.05-.11c4.82-2.83,9.76-5.45,14.72-8s10-4.93,15.11-7.23c2.55-1.17,5.07-2.36,7.55-3.64s4.9-2.69,7.36-4c4.95-2.58,10-5,15.17-7.13Z" style="fill:#a6a6a6"></path><path d="M186.12,339.24c-4.25,3.64-8.66,7.07-13.19,10.33-2.29,1.6-4.63,3.13-6.9,4.76s-4.46,3.36-6.65,5.1c-4.35,3.51-8.78,6.91-13.26,10.24s-9.08,6.51-13.78,9.54l-.07-.09c4.26-3.63,8.66-7.07,13.11-10.45s9-6.59,13.62-9.75c2.31-1.58,4.58-3.2,6.81-4.89s4.35-3.5,6.54-5.23c4.44-3.4,9-6.64,13.7-9.66Z" style="fill:#a6a6a6"></path><path d="M178.37,330.5c-3.55,4.32-7.3,8.46-11.2,12.47-2,2-4,3.88-6,5.88s-3.82,4.08-5.66,6.18c-3.68,4.21-7.46,8.32-11.29,12.38s-7.81,8-11.92,11.8l-.08-.08c3.57-4.32,7.31-8.47,11.1-12.57s7.73-8.06,11.72-12c2-2,4-3.94,5.85-6s3.68-4.2,5.54-6.29c3.78-4.11,7.69-8.09,11.82-11.88Z" style="fill:#a6a6a6"></path><path d="M169.22,323.24c-2.75,4.88-5.72,9.6-8.86,14.22-1.61,2.29-3.29,4.53-4.86,6.83s-3.05,4.68-4.5,7.07c-2.89,4.78-5.89,9.49-9,14.16s-6.31,9.22-9.69,13.68l-.1-.07c2.77-4.86,5.73-9.6,8.75-14.3s6.21-9.28,9.47-13.82c1.62-2.28,3.21-4.57,4.72-6.92s2.89-4.78,4.36-7.16c3-4.71,6.17-9.31,9.57-13.76Z" style="fill:#a6a6a6"></path><path d="M159,317.67c-1.86,5.29-4,10.46-6.26,15.55-1.19,2.53-2.45,5-3.6,7.57s-2.18,5.14-3.2,7.75c-2,5.21-4.16,10.37-6.37,15.49s-4.61,10.18-7.16,15.16l-.11-.05c1.88-5.27,4-10.45,6.13-15.6s4.51-10.22,6.93-15.26c1.19-2.52,2.36-5.06,3.44-7.63s2-5.22,3.05-7.81c2.14-5.16,4.46-10.24,7-15.21Z" style="fill:#a6a6a6"></path><path d="M147.86,314c-.91,5.53-2.09,11-3.46,16.4-.73,2.7-1.54,5.37-2.22,8.08s-1.27,5.44-1.82,8.18c-1.07,5.48-2.29,10.94-3.58,16.37s-2.77,10.82-4.42,16.17l-.11,0c.93-5.52,2.09-11,3.33-16.43s2.66-10.84,4.17-16.23c.74-2.69,1.45-5.39,2.06-8.12s1.09-5.48,1.65-8.21c1.21-5.46,2.62-10.86,4.29-16.2Z" style="fill:#a6a6a6"></path><circle cx="131.49" cy="379.17" r="16.76" transform="translate(-135.73 79.75) rotate(-22.62)" style="fill:#a6a6a6"></circle><path d="M131.49,450.94a71.78,71.78,0,1,1,71.77-71.77A71.86,71.86,0,0,1,131.49,450.94Zm0-135.42a63.65,63.65,0,1,0,63.65,63.65A63.72,63.72,0,0,0,131.49,315.52Z" style="fill:#263238"></path><path d="M373.32,312.27c.06,5.6-.15,11.18-.56,16.75-.25,2.78-.58,5.56-.79,8.35s-.3,5.57-.37,8.37c-.1,5.58-.36,11.16-.68,16.74s-.85,11.14-1.55,16.69h-.11c0-5.59.15-11.18.42-16.76s.74-11.14,1.29-16.7c.26-2.78.49-5.57.62-8.36s.12-5.58.2-8.38c.25-5.58.69-11.14,1.41-16.7Z" style="fill:#a6a6a6"></path><path d="M361.64,312.59c1,5.5,1.79,11,2.36,16.59.24,2.79.39,5.58.67,8.36s.67,5.54,1.09,8.31c.87,5.52,1.59,11.06,2.24,16.6s1.09,11.12,1.37,16.71h-.11c-1-5.5-1.79-11-2.49-16.57s-1.21-11.11-1.64-16.68c-.22-2.79-.48-5.57-.83-8.34s-.86-5.52-1.26-8.28c-.73-5.54-1.26-11.1-1.51-16.7Z" style="fill:#a6a6a6"></path><path d="M350.2,314.93c2,5.24,3.68,10.56,5.2,15.94.72,2.7,1.35,5.42,2.11,8.11s1.63,5.34,2.52,8c1.81,5.29,3.48,10.61,5.08,16s3,10.75,4.26,16.21l-.11,0c-1.95-5.24-3.68-10.56-5.33-15.89s-3.12-10.73-4.51-16.14c-.7-2.7-1.44-5.4-2.27-8.06s-1.8-5.29-2.68-7.95c-1.67-5.32-3.16-10.71-4.38-16.17Z" style="fill:#a6a6a6"></path><path d="M339.33,319.23c2.86,4.82,5.46,9.76,7.89,14.79,1.18,2.53,2.28,5.1,3.49,7.62s2.53,5,3.87,7.43c2.7,4.89,5.27,9.85,7.78,14.84s4.83,10.07,7,15.23l-.11.05c-2.83-4.83-5.45-9.76-8-14.72s-4.93-10-7.24-15.12c-1.16-2.54-2.35-5.06-3.63-7.54s-2.7-4.9-4-7.36c-2.58-5-5-10-7.13-15.17Z" style="fill:#a6a6a6"></path><path d="M329.38,325.35c3.65,4.24,7.07,8.66,10.34,13.19,1.6,2.29,3.13,4.63,4.76,6.9s3.35,4.46,5.1,6.64c3.51,4.35,6.9,8.79,10.24,13.27s6.5,9.08,9.54,13.78l-.09.07c-3.63-4.26-7.07-8.66-10.45-13.11s-6.6-9-9.75-13.63c-1.59-2.3-3.2-4.58-4.89-6.8s-3.51-4.35-5.24-6.54c-3.4-4.44-6.63-9-9.65-13.7Z" style="fill:#a6a6a6"></path><path d="M320.64,333.1c4.33,3.55,8.47,7.3,12.47,11.2,2,2,3.89,4,5.89,6s4.08,3.82,6.18,5.66c4.21,3.68,8.32,7.46,12.38,11.29s8,7.81,11.79,11.91l-.08.09c-4.31-3.57-8.46-7.31-12.56-11.1s-8.06-7.73-12-11.73c-2-2-3.95-3.95-6-5.84s-4.2-3.68-6.29-5.54c-4.12-3.78-8.1-7.7-11.89-11.82Z" style="fill:#a6a6a6"></path><path d="M313.38,342.25c4.88,2.74,9.61,5.72,14.23,8.86,2.28,1.61,4.52,3.28,6.83,4.86s4.68,3,7.07,4.5c4.78,2.88,9.49,5.89,14.15,9s9.22,6.31,13.69,9.69l-.07.09c-4.86-2.76-9.6-5.72-14.3-8.74s-9.28-6.22-13.82-9.47c-2.28-1.62-4.58-3.21-6.93-4.72s-4.78-2.89-7.15-4.36c-4.71-3-9.31-6.17-13.76-9.57Z" style="fill:#a6a6a6"></path><path d="M307.82,352.52c5.28,1.86,10.46,4,15.55,6.26,2.53,1.18,5,2.45,7.57,3.59s5.14,2.19,7.74,3.21c5.22,2,10.37,4.16,15.5,6.37s10.18,4.61,15.16,7.16l0,.11c-5.27-1.88-10.45-4-15.6-6.13s-10.22-4.51-15.26-6.93c-2.52-1.2-5.06-2.36-7.64-3.44s-5.21-2-7.8-3.05c-5.16-2.14-10.24-4.47-15.21-7Z" style="fill:#a6a6a6"></path><path d="M304.13,363.6c5.52.91,11,2.09,16.4,3.47,2.69.72,5.37,1.53,8.08,2.22s5.44,1.27,8.18,1.81c5.48,1.08,10.93,2.3,16.37,3.59s10.82,2.77,16.17,4.42l0,.11c-5.52-.93-11-2.09-16.43-3.33s-10.85-2.66-16.23-4.17c-2.69-.74-5.39-1.45-8.12-2.06S323,368.57,320.3,368c-5.45-1.21-10.86-2.62-16.2-4.29Z" style="fill:#a6a6a6"></path><path d="M302.42,375.16c5.6-.06,11.18.15,16.75.56,2.78.25,5.56.58,8.34.79s5.58.3,8.37.36c5.59.11,11.17.36,16.75.69s11.13.85,16.69,1.55v.11c-5.6,0-11.18-.15-16.76-.42s-11.14-.74-16.7-1.29c-2.79-.26-5.57-.49-8.36-.62s-5.59-.12-8.38-.2c-5.58-.25-11.15-.69-16.7-1.41Z" style="fill:#a6a6a6"></path><path d="M302.74,386.84c5.5-1,11-1.8,16.59-2.36,2.78-.24,5.58-.39,8.36-.67s5.54-.67,8.3-1.1c5.52-.86,11.06-1.58,16.61-2.23s11.12-1.09,16.71-1.37v.11c-5.5,1-11,1.79-16.58,2.49s-11.1,1.21-16.67,1.64c-2.79.22-5.57.48-8.34.83s-5.52.86-8.29,1.26c-5.53.73-11.1,1.26-16.69,1.51Z" style="fill:#a6a6a6"></path><path d="M305.08,398.28c5.24-2,10.56-3.68,15.93-5.2,2.7-.72,5.43-1.35,8.12-2.11s5.34-1.63,8-2.52c5.29-1.81,10.62-3.48,16-5.08s10.76-3,16.22-4.26l0,.11c-5.25,1.95-10.56,3.68-15.89,5.33s-10.73,3.12-16.14,4.51c-2.71.7-5.4,1.44-8.07,2.27s-5.29,1.8-7.94,2.68c-5.33,1.67-10.71,3.16-16.17,4.38Z" style="fill:#a6a6a6"></path><path d="M309.38,409.14c4.81-2.85,9.75-5.45,14.78-7.88,2.54-1.18,5.11-2.28,7.63-3.49s5-2.53,7.43-3.87c4.89-2.7,9.85-5.27,14.84-7.78s10.07-4.83,15.23-7l0,.11c-4.83,2.83-9.76,5.45-14.73,8s-10,4.93-15.11,7.24c-2.54,1.16-5.07,2.35-7.55,3.63s-4.89,2.7-7.35,4c-5,2.58-10,5-15.17,7.13Z" style="fill:#a6a6a6"></path><path d="M315.49,419.1c4.25-3.65,8.66-7.07,13.2-10.34,2.29-1.6,4.63-3.13,6.9-4.76s4.46-3.35,6.64-5.1c4.35-3.51,8.79-6.9,13.27-10.24s9.08-6.5,13.78-9.54l.07.09c-4.26,3.63-8.67,7.07-13.11,10.45s-9,6.6-13.63,9.75c-2.3,1.59-4.58,3.2-6.8,4.89s-4.36,3.5-6.55,5.24c-4.43,3.39-9,6.63-13.7,9.65Z" style="fill:#a6a6a6"></path><path d="M323.25,427.84c3.55-4.33,7.3-8.47,11.19-12.47,2-2,4-3.89,6-5.89s3.81-4.08,5.66-6.18c3.67-4.21,7.45-8.32,11.29-12.38s7.81-8,11.91-11.79l.09.08c-3.57,4.31-7.31,8.46-11.1,12.56s-7.73,8.06-11.73,12c-2,2-3.95,3.95-5.85,6s-3.68,4.2-5.53,6.29c-3.78,4.12-7.7,8.1-11.82,11.89Z" style="fill:#a6a6a6"></path><path d="M332.4,435.1c2.74-4.88,5.72-9.61,8.86-14.23,1.6-2.28,3.28-4.52,4.85-6.83s3.05-4.68,4.5-7.07c2.89-4.78,5.9-9.49,9-14.15s6.3-9.23,9.68-13.69l.1.07c-2.76,4.86-5.72,9.6-8.75,14.3s-6.21,9.28-9.47,13.82c-1.61,2.28-3.2,4.58-4.71,6.93s-2.9,4.78-4.36,7.15c-3,4.71-6.18,9.31-9.58,13.76Z" style="fill:#a6a6a6"></path><path d="M342.67,440.66c1.85-5.28,4-10.46,6.26-15.55,1.18-2.53,2.44-5,3.59-7.57s2.19-5.14,3.21-7.74c2-5.22,4.15-10.37,6.37-15.5s4.61-10.18,7.16-15.16l.11.05c-1.88,5.27-4,10.45-6.14,15.6s-4.5,10.22-6.92,15.26c-1.2,2.52-2.37,5.06-3.44,7.64s-2,5.21-3.06,7.8c-2.14,5.16-4.46,10.24-7,15.21Z" style="fill:#a6a6a6"></path><path d="M353.75,444.35c.91-5.52,2.09-11,3.46-16.4.73-2.7,1.54-5.37,2.23-8.08s1.26-5.44,1.81-8.18c1.08-5.48,2.3-10.93,3.58-16.37s2.78-10.82,4.43-16.17l.11,0c-.93,5.52-2.1,11-3.33,16.43s-2.66,10.85-4.17,16.23c-.74,2.69-1.45,5.39-2.06,8.12s-1.09,5.48-1.66,8.22c-1.21,5.45-2.61,10.85-4.28,16.2Z" style="fill:#a6a6a6"></path><path d="M365.31,446.06c-.07-5.6.15-11.18.56-16.75.25-2.78.58-5.56.79-8.34s.3-5.58.36-8.37c.11-5.59.36-11.17.69-16.75s.85-11.13,1.55-16.69h.11c0,5.6-.15,11.18-.43,16.76s-.73,11.14-1.28,16.7c-.27,2.79-.5,5.57-.63,8.36s-.11,5.59-.2,8.38c-.24,5.58-.69,11.15-1.41,16.7Z" style="fill:#a6a6a6"></path><path d="M377,445.74c-1-5.5-1.79-11-2.35-16.59-.24-2.79-.39-5.58-.67-8.36s-.68-5.54-1.1-8.3c-.86-5.52-1.58-11.06-2.23-16.61s-1.1-11.12-1.37-16.71h.11c1,5.5,1.79,11,2.49,16.58s1.21,11.1,1.63,16.67c.23,2.79.49,5.57.84,8.34s.86,5.52,1.26,8.29c.73,5.53,1.26,11.09,1.51,16.69Z" style="fill:#a6a6a6"></path><path d="M388.43,443.4c-2-5.24-3.68-10.56-5.2-15.93-.72-2.7-1.36-5.43-2.12-8.12s-1.62-5.34-2.52-8c-1.8-5.28-3.48-10.61-5.08-16s-3-10.76-4.25-16.22l.11,0c1.95,5.25,3.68,10.56,5.33,15.89s3.12,10.73,4.5,16.14c.71,2.71,1.44,5.4,2.28,8.07s1.8,5.29,2.67,7.94c1.68,5.33,3.17,10.71,4.39,16.17Z" style="fill:#a6a6a6"></path><path d="M399.29,439.1c-2.85-4.81-5.46-9.75-7.89-14.78-1.17-2.54-2.27-5.11-3.49-7.63s-2.53-5-3.87-7.43c-2.7-4.89-5.27-9.85-7.77-14.84s-4.84-10.07-7-15.23l.11-.05c2.83,4.83,5.45,9.76,8,14.73s4.94,10,7.24,15.11c1.17,2.54,2.36,5.06,3.64,7.55s2.69,4.89,4,7.35c2.57,5,5,10,7.13,15.17Z" style="fill:#a6a6a6"></path><path d="M409.24,433c-3.64-4.25-7.07-8.67-10.33-13.2-1.6-2.29-3.13-4.63-4.76-6.9s-3.36-4.46-5.1-6.64c-3.51-4.35-6.91-8.79-10.24-13.27s-6.51-9.08-9.54-13.78l.09-.07c3.63,4.26,7.07,8.67,10.44,13.11s6.6,9,9.76,13.63c1.58,2.3,3.2,4.58,4.89,6.8s3.5,4.36,5.23,6.55c3.4,4.43,6.64,9,9.66,13.7Z" style="fill:#a6a6a6"></path><path d="M418,425.23c-4.33-3.55-8.46-7.3-12.47-11.19-2-2-3.88-4-5.88-6s-4.08-3.81-6.18-5.66c-4.21-3.68-8.32-7.45-12.38-11.29s-8-7.81-11.8-11.91l.08-.09c4.32,3.57,8.47,7.31,12.57,11.1S390,398,393.89,402c2,2,3.94,3.95,6,5.85s4.2,3.68,6.29,5.53c4.11,3.78,8.09,7.7,11.88,11.82Z" style="fill:#a6a6a6"></path><path d="M425.24,416.08c-4.88-2.74-9.6-5.72-14.22-8.86-2.29-1.6-4.53-3.28-6.83-4.85s-4.68-3.05-7.07-4.5c-4.79-2.89-9.49-5.9-14.16-9s-9.22-6.31-13.68-9.69l.07-.09c4.86,2.76,9.6,5.72,14.29,8.75s9.29,6.21,13.83,9.46c2.28,1.62,4.57,3.21,6.92,4.72s4.78,2.9,7.16,4.36c4.71,3,9.31,6.18,13.76,9.58Z" style="fill:#a6a6a6"></path><path d="M430.8,405.81c-5.28-1.86-10.45-4-15.54-6.26-2.53-1.18-5-2.45-7.58-3.59s-5.13-2.19-7.74-3.21c-5.21-2-10.37-4.15-15.49-6.37s-10.18-4.61-15.16-7.16l0-.11c5.27,1.88,10.45,4,15.6,6.14s10.22,4.5,15.26,6.92c2.52,1.2,5.06,2.37,7.63,3.44s5.21,2,7.81,3.06c5.16,2.14,10.24,4.46,15.21,7Z" style="fill:#a6a6a6"></path><path d="M434.5,394.73c-5.53-.91-11-2.09-16.4-3.47-2.7-.72-5.38-1.53-8.08-2.22s-5.44-1.26-8.18-1.81c-5.49-1.08-10.94-2.3-16.37-3.59s-10.82-2.77-16.17-4.42l0-.11c5.52.93,11,2.09,16.43,3.33s10.84,2.66,16.23,4.17c2.69.74,5.39,1.45,8.11,2.06s5.49,1.09,8.22,1.65c5.46,1.22,10.86,2.62,16.2,4.29Z" style="fill:#a6a6a6"></path><path d="M436.21,383.17c-5.6.06-11.18-.15-16.75-.56-2.78-.25-5.56-.58-8.35-.79s-5.57-.3-8.37-.36c-5.58-.11-11.16-.36-16.74-.69s-11.14-.85-16.69-1.55v-.11c5.59,0,11.18.15,16.75.42s11.15.74,16.71,1.29c2.78.27,5.57.5,8.36.63s5.58.11,8.38.19c5.58.25,11.14.7,16.7,1.42Z" style="fill:#a6a6a6"></path><path d="M435.89,371.49c-5.5,1-11,1.8-16.59,2.36-2.79.24-5.58.39-8.36.67s-5.54.68-8.31,1.1c-5.52.86-11.06,1.58-16.6,2.23s-11.12,1.1-16.71,1.37v-.11c5.5-1,11-1.79,16.57-2.49S397,375.41,402.56,375c2.79-.23,5.57-.49,8.34-.84s5.52-.86,8.28-1.26c5.54-.73,11.1-1.26,16.7-1.51Z" style="fill:#a6a6a6"></path><path d="M433.54,360.05c-5.23,2-10.55,3.68-15.93,5.2-2.7.72-5.42,1.36-8.11,2.11s-5.34,1.63-8,2.53c-5.29,1.8-10.62,3.48-16,5.08s-10.75,3-16.21,4.25l0-.11c5.24-1.95,10.56-3.68,15.89-5.33s10.73-3.12,16.14-4.5c2.7-.71,5.4-1.44,8.06-2.28s5.29-1.8,7.95-2.68c5.32-1.67,10.71-3.16,16.17-4.38Z" style="fill:#a6a6a6"></path><path d="M429.25,349.19c-4.82,2.85-9.76,5.46-14.79,7.89-2.53,1.17-5.1,2.27-7.62,3.49s-5,2.52-7.43,3.86c-4.89,2.7-9.85,5.28-14.84,7.78s-10.07,4.83-15.23,7l0-.11c4.82-2.83,9.76-5.45,14.72-8s10-4.93,15.12-7.23c2.54-1.17,5.06-2.36,7.54-3.64s4.9-2.69,7.36-4c5-2.58,10-5,15.17-7.13Z" style="fill:#a6a6a6"></path><path d="M423.13,339.24c-4.24,3.64-8.66,7.07-13.19,10.33-2.29,1.6-4.63,3.13-6.9,4.76s-4.46,3.36-6.64,5.1c-4.35,3.51-8.79,6.91-13.27,10.24s-9.08,6.51-13.78,9.54l-.07-.09c4.26-3.63,8.66-7.07,13.11-10.45s9-6.59,13.63-9.75c2.3-1.58,4.58-3.2,6.8-4.89s4.35-3.5,6.54-5.23c4.44-3.4,9-6.64,13.7-9.66Z" style="fill:#a6a6a6"></path><path d="M415.38,330.5c-3.55,4.32-7.3,8.46-11.2,12.47-2,2-4,3.88-6,5.88s-3.82,4.08-5.66,6.18c-3.68,4.21-7.46,8.32-11.29,12.38s-7.81,8-11.91,11.8l-.09-.08c3.57-4.32,7.31-8.47,11.1-12.57s7.73-8.06,11.73-12c2-2,3.95-3.94,5.84-6s3.68-4.2,5.54-6.29c3.78-4.11,7.7-8.09,11.82-11.88Z" style="fill:#a6a6a6"></path><path d="M406.23,323.24c-2.74,4.88-5.72,9.6-8.86,14.22-1.61,2.29-3.28,4.53-4.86,6.83s-3,4.68-4.5,7.07c-2.89,4.78-5.89,9.49-9,14.16s-6.31,9.22-9.69,13.68l-.1-.07c2.77-4.86,5.73-9.6,8.75-14.3s6.22-9.28,9.47-13.82c1.62-2.28,3.21-4.57,4.72-6.92s2.89-4.78,4.36-7.16c3-4.71,6.17-9.31,9.57-13.76Z" style="fill:#a6a6a6"></path><path d="M396,317.67c-1.86,5.29-4,10.46-6.26,15.55-1.18,2.53-2.45,5-3.59,7.57s-2.19,5.14-3.21,7.75c-2,5.21-4.16,10.37-6.37,15.49s-4.61,10.18-7.16,15.16l-.11-.05c1.88-5.27,4-10.45,6.13-15.6s4.51-10.22,6.93-15.26c1.2-2.52,2.36-5.06,3.44-7.63s2-5.22,3.05-7.81c2.14-5.16,4.46-10.24,7-15.21Z" style="fill:#a6a6a6"></path><path d="M384.87,314c-.91,5.53-2.09,11-3.46,16.4-.72,2.7-1.54,5.37-2.22,8.08s-1.27,5.44-1.81,8.18c-1.08,5.48-2.3,10.94-3.59,16.37s-2.77,10.82-4.42,16.17l-.11,0c.93-5.52,2.09-11,3.33-16.43s2.66-10.84,4.17-16.23c.74-2.69,1.45-5.39,2.06-8.12s1.09-5.48,1.65-8.21c1.21-5.46,2.62-10.86,4.29-16.2Z" style="fill:#a6a6a6"></path><path d="M385.27,379.17a16.77,16.77,0,1,1-16.76-16.77A16.77,16.77,0,0,1,385.27,379.17Z" style="fill:#a6a6a6"></path><path d="M368.51,450.94a71.78,71.78,0,1,1,71.77-71.77A71.85,71.85,0,0,1,368.51,450.94Zm0-135.42a63.65,63.65,0,1,0,63.64,63.65A63.72,63.72,0,0,0,368.51,315.52Z" style="fill:#263238"></path><path d="M251.92,385a16.68,16.68,0,1,1-16.68-16.67A16.68,16.68,0,0,1,251.92,385Z" style="fill:#a6a6a6"></path><path d="M231.77,292.54l-12.08,43c-.07,8.42,0,15.79.42,19.61a.13.13,0,0,0,0,.06,6,6,0,0,0,.59,2.6l0,.05c2.49,1.72,69.71,4.26,72.08,3.56s.57-7.52-2-9.7S263,337.06,263,337.06l11.66-42.95Z" style="fill:#ad6359"></path><path d="M291.87,361.61c-2.37.7-68.62-2-71.1-3.74l-.06-.06a6.08,6.08,0,0,1-.6-2.6s0,0,0-.06c-.4-3.81-.49-11.19-.42-19.61,0,0,1.55-5.51,2.89-10.29l42.74,3.39L263,337.06s24.32,12.67,26.86,14.84S294.25,360.91,291.87,361.61Z" style="fill:#ebebeb"></path><path d="M292.55,360.41c-2.41.66-70.09-3.49-72.57-5.28-.95-.67-.92-10.57-.54-22.52v-.38l43.7,2.19-.07.74s25.2,13.17,27.71,15.43S295,359.77,292.55,360.41Z" style="fill:#455a64"></path><path d="M291.94,357.74c-11.39-1-57.43-3.85-68.76-3.95-.09,0-.1.06,0,.07,11.27,1.22,57.33,3.72,68.76,4.07C292.17,357.94,292.18,357.76,291.94,357.74Z" style="fill:#fff"></path><path d="M266.74,335.51c-4.43-1.11-10-.76-13.59,2.23-.14.12,0,.32.17.28a62.89,62.89,0,0,1,13.37-1.94A.29.29,0,0,0,266.74,335.51Z" style="fill:#fff"></path><path d="M269.86,337.66c-4.43-1.11-10-.75-13.59,2.23-.14.12,0,.32.17.28a63.54,63.54,0,0,1,13.37-1.94A.29.29,0,0,0,269.86,337.66Z" style="fill:#fff"></path><path d="M273,339.82c-4.44-1.12-10-.76-13.6,2.23-.14.11,0,.31.17.27a63.54,63.54,0,0,1,13.37-1.94A.28.28,0,0,0,273,339.82Z" style="fill:#fff"></path><path d="M293.73,358.05c1.18.54.67,4.59-.22,4.87s-74.67-4.57-75.91-4.93-.5-4.83,1-5S293.73,358.05,293.73,358.05Z" style="fill:#B3195C"></path><path d="M230.16,340.5c-4.75-2.76-9,4.63-4.28,7.39S234.93,343.26,230.16,340.5Z" style="fill:#fff"></path><path d="M267.8,331l-49.43-5.39s27-73.9,25.18-76.31c-2-2.61-68.87,6.82-81.82-10.83-14.5-19.76,1.61-51,1.61-51l52.54,1.66a71.16,71.16,0,0,1-4.94,17.73s51.9-9.41,72.49,1.75c3.09,1.67,9,10.9,8.94,19.6C292.12,266.7,267.8,331,267.8,331Z" style="fill:#37474f"></path><path d="M268.33,322.5c-5.62-1.05-11.27-1.81-16.94-2.55s-11.34-1.4-17-1.93c-3.21-.29-6.43-.42-9.64-.71-.1,0-.13.16,0,.17,2.86.37,5.69.91,8.54,1.29s5.61.75,8.43,1.09c5.67.7,11.35,1.32,17,2,3.2.38,6.4.65,9.62.89C268.43,322.74,268.47,322.52,268.33,322.5Z" style="fill:#263238"></path><path d="M185.21,192.55a3.66,3.66,0,0,1-.27.61.08.08,0,0,0,0,.11c-.67,1.87-1,3.88-1.63,5.76a9.19,9.19,0,0,1-3.68,4.91c-3.67,2.38-8,3.37-12.23,4.28-.14,0-.1.22,0,.23a23.13,23.13,0,0,0,7.16-.87,18.55,18.55,0,0,0,6.1-2.69,9.38,9.38,0,0,0,3.61-5.08c.32-1.09.5-2.21.71-3.32a25.63,25.63,0,0,0,.54-3.89A.18.18,0,0,0,185.21,192.55Z" style="fill:#263238"></path><path d="M215.21,205.19a53.84,53.84,0,0,0-8.43,2.91l-.13.06a2.34,2.34,0,0,0,.14-.5l.12-.6c0-.21.06-.42.08-.63s0-.21,0-.32v0a2.53,2.53,0,0,0,1.82-.86,6.66,6.66,0,0,0,1.19-2.59c.35-1.17.68-2.35,1-3.54s.62-2.66.88-4a27.73,27.73,0,0,0,.58-4,.19.19,0,0,0-.37-.05c-.35,1.22-.53,2.48-.8,3.72s-.58,2.47-.91,3.7-.67,2.45-1.05,3.66-.69,2.65-2,3c-2.62.66-1.27-5.14-1.12-6.28.34-2.63.59-5.32,1.14-7.93a.09.09,0,0,0-.17,0c-.64,2.39-1.36,4.73-1.87,7.15-.24,1.19-.43,2.39-.6,3.59a5.57,5.57,0,0,0,.14,3.11,2.29,2.29,0,0,0,1.68,1.33l-.09.27c-.07.19-.14.38-.19.57s-.11.39-.16.59a1.45,1.45,0,0,0-.11.71.29.29,0,0,0,.13.16c-1.13.45-2.25.9-3.37,1.37a27.82,27.82,0,0,0-4.05,1.82c-.15.06,0,.27.1.25a29.06,29.06,0,0,0,4.23-1.39c1.41-.48,2.8-1,4.19-1.53a52.85,52.85,0,0,0,8-3.44A.13.13,0,0,0,215.21,205.19Z" style="fill:#263238"></path><path d="M244.76,247.82c-8,.5-16.1.9-24.16,1.3-15.28.75-25.08-.42-29.62-.56a.12.12,0,0,0,0,.23c9.37.8,16.13,1.94,24.21,2s7.91-.18,16-.59c4.19-.21,8.39-.46,12.57-.82-3.14,9.74-6.62,19.39-9.91,29.08-3.37,10-6.57,20-9.84,30-1.85,5.66-3.76,11.31-5.5,17-.16.52.62.72.81.22,3.65-9.94,7-20,10.45-30s6.77-19.94,10.1-29.93c1.89-5.65,3.63-11.35,5.61-17A.73.73,0,0,0,244.76,247.82Z" style="fill:#263238"></path><path d="M251.85,242.88c-18.53,1.05-28.88,1.34-47.44.86-4.3-.11-8.62-.22-12.92-.47a54.92,54.92,0,0,1-11.56-1.66,24.42,24.42,0,0,1-10.07-5.28,24.77,24.77,0,0,1-6.17-9.32c-3.55-9.16-2.34-19.31-.93-28.79,0-.14-.2-.2-.22-.06-1.26,8.6-2.62,17.45-.33,26,1.95,7.26,6.43,13.47,13.42,16.55,7.28,3.22,15.58,3.21,23.4,3.47,9.57.31,10.93.42,20.51.33q16-.15,31.91-1.06c-6.73,18.6-23.72,66.85-25.23,72.21a.17.17,0,0,0,.32.09c3.06-9.47,16.76-47.37,20-56.77q2.73-7.89,5.55-15.75A.28.28,0,0,0,251.85,242.88Z" style="fill:#263238"></path><polygon points="254.22 362.72 232.84 387.31 238.5 390.61 259.88 366.02 254.22 362.72 254.22 362.72" style="fill:#c7c7c7"></polygon><rect x="239.57" y="359.99" width="28.94" height="8.4" style="fill:#263238"></rect><path d="M163.25,187.42l56.05,2,1.4-13.48a14.2,14.2,0,0,0,5-10.58c-.1-9.29-7.52-20.08-11.3-26.12-4.66-7.46-15-10.28-22.6-2.33C173.13,156.29,163.25,187.42,163.25,187.42Z" style="fill:#ad6359"></path><path d="M210.34,183.27a3.34,3.34,0,0,0-1.16,1.72,6,6,0,0,0-.3,2c0,.33.13.55.25.57a.18.18,0,0,0,.19,0,1,1,0,0,0,.23-.34,3.05,3.05,0,0,0,.12-2.05,2.6,2.6,0,0,1,.42,2.23,1.42,1.42,0,0,1-.31.61.87.87,0,0,1-.81.27.91.91,0,0,1-.65-.53,2.18,2.18,0,0,1-.18-.66,4.83,4.83,0,0,1,.46-2.32A2.61,2.61,0,0,1,210.34,183.27Z" style="fill:#263238"></path><path d="M165.22,181l44.8,1.32L222.15,189l-1.45-13.15a14.2,14.2,0,0,0,5-10.58c-.1-9.29-7.52-20.08-11.3-26.12-4.66-7.46-15-10.28-22.6-2.33C173.13,156.29,165.22,181,165.22,181Z" style="fill:#ebebeb"></path><path d="M204.78,173.27a39.83,39.83,0,0,1,6.89,2c1.12.45,2.2,1,3.29,1.49.54.27,1.08.52,1.63.76a6.65,6.65,0,0,0,1.77.57s0,.1,0,.1a10.07,10.07,0,0,1-1.73-.19,10.3,10.3,0,0,1-1.63-.52c-1.13-.44-2.25-.95-3.38-1.4-2.27-.92-4.55-1.84-6.88-2.56C204.62,173.47,204.67,173.25,204.78,173.27Z" style="fill:#263238"></path><path d="M198.74,175.3a42.74,42.74,0,0,1,5.88.16,28.82,28.82,0,0,1,2.91.45l1.38.31c.5.12,1,.33,1.49.44.06,0,0,.11,0,.1-.48-.09-1-.08-1.46-.14l-1.45-.17c-1-.11-1.95-.21-2.92-.33-1.95-.24-3.88-.46-5.84-.63C198.62,175.48,198.64,175.3,198.74,175.3Z" style="fill:#263238"></path><path d="M209.42,183.16s1.08,5.08,5.13,7.07c0,0,1.33-4.25.34-6.16-.5-.95-3.7-2.42-4.28-2A7.87,7.87,0,0,0,209.42,183.16Z" style="fill:#B3195C"></path><path d="M209.42,183.16s1.08,5.08,5.13,7.07c0,0,1.33-4.25.34-6.16-.5-.95-3.7-2.42-4.28-2A7.87,7.87,0,0,0,209.42,183.16Z" style="fill:#ebebeb"></path><path d="M209.42,183.16a14.77,14.77,0,0,0,2,4,9.73,9.73,0,0,0,1.47,1.6,8.85,8.85,0,0,0,1.79,1.19l-.51.22a18.89,18.89,0,0,0,.63-3.06,5.37,5.37,0,0,0-.28-2.91,4.17,4.17,0,0,0-1.1-1,10.16,10.16,0,0,0-1.39-.72q-.36-.15-.72-.27a1.08,1.08,0,0,0-.68,0A9,9,0,0,0,209.42,183.16Zm0,0a7.2,7.2,0,0,1,1.1-1.18,1.28,1.28,0,0,1,.89-.09,4.49,4.49,0,0,1,.8.21,9.06,9.06,0,0,1,1.5.65,4.16,4.16,0,0,1,1.37,1,5.56,5.56,0,0,1,.48,3.34,16.81,16.81,0,0,1-.67,3.21l-.12.42-.38-.21a8.3,8.3,0,0,1-1.91-1.36,8.68,8.68,0,0,1-1.45-1.8,11.36,11.36,0,0,1-1.61-4.23Z" style="fill:#263238"></path><path d="M209.42,183.16a8.33,8.33,0,0,1,1.18-1.09.13.13,0,0,1,.09,0,.21.21,0,0,1,.12,0h.09a4.93,4.93,0,0,1,1.87.56,10.82,10.82,0,0,1-1.11,1.65,2.92,2.92,0,0,1-1.67.7A10.84,10.84,0,0,1,209.42,183.16Z" style="fill:#050400;opacity:0.1"></path><path d="M208.93,183.25s-4.21,4.71-7.39,5.57c0,0-.8-3.55,1.1-6.16.85-1.17,5.64-1.81,5.93-1.1A6.14,6.14,0,0,1,208.93,183.25Z" style="fill:#B3195C"></path><path d="M208.93,183.25s-4.21,4.71-7.39,5.57c0,0-.8-3.55,1.1-6.16.85-1.17,5.64-1.81,5.93-1.1A6.14,6.14,0,0,1,208.93,183.25Z" style="fill:#ebebeb"></path><path d="M208.93,183.25a25.3,25.3,0,0,1-3.23,3.4,17.73,17.73,0,0,1-1.88,1.45,8.57,8.57,0,0,1-2.19,1.07l-.37.11-.07-.38a9.47,9.47,0,0,1,0-3.75,7.17,7.17,0,0,1,.62-1.79,6.19,6.19,0,0,1,.5-.82,2.12,2.12,0,0,1,.81-.66,10.1,10.1,0,0,1,3.63-.8,7.22,7.22,0,0,1,.93,0,1.6,1.6,0,0,1,.93.33A4.33,4.33,0,0,1,208.93,183.25Zm0,0a5,5,0,0,0-.5-1.67,1.48,1.48,0,0,0-.77-.14c-.29,0-.59,0-.88.06a9.68,9.68,0,0,0-3.35,1,1.39,1.39,0,0,0-.56.48,4.88,4.88,0,0,0-.42.74,6.43,6.43,0,0,0-.54,1.62,9.47,9.47,0,0,0,0,3.44l-.44-.27a8.17,8.17,0,0,0,2-.91,18.28,18.28,0,0,0,1.91-1.29C206.62,185.33,207.79,184.31,208.93,183.25Z" style="fill:#263238"></path><path d="M207.94,184.28a3.62,3.62,0,0,1-1.22-1.66,3.23,3.23,0,0,1,0-1.32c1-.08,1.76,0,1.88.26a6.29,6.29,0,0,1,.35,1.69S208.56,183.67,207.94,184.28Z" style="fill:#050400;opacity:0.1"></path><path d="M207.63,181.59a2.05,2.05,0,1,1,1.27,2.61A2,2,0,0,1,207.63,181.59Z" style="fill:#ebebeb"></path><path d="M207.63,181.59a2.24,2.24,0,0,1,2.66-1.45,2.28,2.28,0,0,1,1.41,1.07,2.27,2.27,0,0,1-1.09,3.18,2.31,2.31,0,0,1-1.77,0A2.26,2.26,0,0,1,207.63,181.59Zm0,0a1.91,1.91,0,0,0,.14,1.55A1.93,1.93,0,0,0,209,184a1.88,1.88,0,1,0-1.33-2.43Z" style="fill:#263238"></path><path d="M200.3,132.09s-5.44,22.23-8.67,31-21.08,71.49-26.8,82.72-19.51,31.74-38,35.15-48.15-30-41.67-40.66c4.25-7,37.36-20.8,48.91-29.84s47.52-64,55.88-72C197,131.65,200.3,132.09,200.3,132.09Z" style="fill:#B3195C"></path><g style="opacity:0.1"><path d="M168.1,222c-2.71.55-5.44,1.15-8.1,1.88-2.48.67-4.95,1.36-7.46,1.92a60.48,60.48,0,0,1-7.48,1.25,36.89,36.89,0,0,1-7.72-.13c-.09,0-.15.11-.05.14,7.64,2.66,16.41.3,23.68-2,2.45-.8,4.89-1.7,7.28-2.64C168.52,222.31,168.39,222,168.1,222Z"></path><path d="M166.71,224.79a66,66,0,0,1-11.05,3.87,55.45,55.45,0,0,1-11.59,1.44c-2.26.06-4.56,0-6.82-.16-.14,0-.18.15,0,.19a38.3,38.3,0,0,0,23.75-2,28.94,28.94,0,0,0,5.85-3.18C166.9,224.86,166.81,224.75,166.71,224.79Z"></path><path d="M165,228.31A130.74,130.74,0,0,1,157.4,242a13.39,13.39,0,0,1-3.82,3.79c-3,1.81-7.22,2.38-10.82,2.26-3.38-.11-7.29-1.08-9.18-3.78-1.13-1.63-.58-3.55-.16-5.29a37.8,37.8,0,0,1,2.08-6.33c0-.09-.12-.16-.16-.06-.9,1.82-1.76,3.67-2.48,5.56-.64,1.71-1.45,3.57-1,5.39.78,3.26,4.53,5.11,8,5.75a22,22,0,0,0,6.48.11,23.39,23.39,0,0,0,5.89-1.37,15.39,15.39,0,0,0,4.66-3.17c2.14-1.94,7.1-11.88,8.23-16.46C165.09,228.29,165,228.24,165,228.31Z"></path></g><path d="M234,95.8a1.44,1.44,0,0,1-1.64,2.27,1.59,1.59,0,0,1-.17.59,1.57,1.57,0,0,1-2,.76,1.5,1.5,0,0,1-.14.5,1.44,1.44,0,0,1-2.6,0,1.45,1.45,0,0,1-1.88.53,1.38,1.38,0,0,1-.47-.39,1.34,1.34,0,0,1-.06.12,1.44,1.44,0,0,1-2.71-.42,1.44,1.44,0,0,1-2.56-.84,1.62,1.62,0,0,1-1-.14,1.56,1.56,0,0,1-.79-.94,1.55,1.55,0,0,1-1.21-.09,1.58,1.58,0,0,1-.85-1.71,1.37,1.37,0,0,1-.54-.15,1.44,1.44,0,0,1-.72-1.76,1.54,1.54,0,0,1-.68-.16,1.58,1.58,0,0,1-.7-2.13,1.31,1.31,0,0,1,.31-.42l-.24-.09a1.45,1.45,0,0,1-.64-1.94,1.33,1.33,0,0,1,.53-.57,1.59,1.59,0,0,1,0-2.7,1.59,1.59,0,0,1-.25-1.8,1.56,1.56,0,0,1,1.11-.84,1.43,1.43,0,0,1,.06-1.16,1.4,1.4,0,0,1,.91-.74,1.59,1.59,0,0,1,1.68-2.26,1.38,1.38,0,0,1,.15-.68,1.43,1.43,0,0,1,1.76-.71,1.56,1.56,0,0,1,.16-.66,1.59,1.59,0,0,1,2.13-.71,1.69,1.69,0,0,1,.31.21,1.17,1.17,0,0,1,.09-.24,1.58,1.58,0,0,1,2.13-.7,1.12,1.12,0,0,1,.33.22,1.36,1.36,0,0,1,.14-.43,1.58,1.58,0,0,1,2.94.26,1.58,1.58,0,0,1,2.35.8,1.44,1.44,0,0,1,2.5.84,1.47,1.47,0,0,1,1.23,0,1.43,1.43,0,0,1,.78,1.48,1.55,1.55,0,0,1,1.28.06,1.58,1.58,0,0,1,.82,1.84,1.29,1.29,0,0,1,.51.14A1.46,1.46,0,0,1,237,83a1.3,1.3,0,0,1-.32.41l.09,0a1.59,1.59,0,0,1,.71,2.13,1.46,1.46,0,0,1-.27.38,1.26,1.26,0,0,1,.37.13,1.43,1.43,0,0,1-.21,2.65,1.43,1.43,0,0,1,.1,1.47,1.4,1.4,0,0,1-.82.71,1.59,1.59,0,0,1,.32,1.86,1.57,1.57,0,0,1-1.61.86A1.44,1.44,0,0,1,234,95.8Z" style="fill:#263238"></path><path d="M202.55,132.39c0,1.07,3.51,8.65,8.2,9.38,1.52.24,3.19-8,3.19-8l.26-.58,3.67-8.15-8.72-8.51-1.27-1.15s-.86,2.3-1.9,5.17c0,.13-.09.26-.14.41s-.13.31-.18.46c-.16.43-.32.86-.47,1.3s-.24.66-.35,1-.23.7-.35,1A57.75,57.75,0,0,0,202.55,132.39Z" style="fill:#ad6359"></path><path d="M206,120.52a18,18,0,0,0,8.22,12.64l3.67-8.15-8.72-8.51-1.27-1.15S207,117.65,206,120.52Z" style="fill:#263238"></path><path d="M231.48,111.18c1,15.65-8.22,18-11.59,18.27-3.07.2-13.53.49-16.18-15S208,93.58,215,92.75,230.44,95.52,231.48,111.18Z" style="fill:#ad6359"></path><path d="M220.57,96.56a7.17,7.17,0,0,1-.3,4.16c-1.78,3.54-6.05,2.49-7.56,3.87s-1,4.07-2.26,5.37c-1.77,1.79-2.91.44-3.23,1.68s-1.22,5.16-2.8,5.62-8.16-26,12.33-24.63c0,0,2.93-1.24,7.16,1.23,6,3.53,6.87,11.68,6.87,11.68a5.11,5.11,0,0,1-1.92-.94c-1-.91-1.44-1.58-2.16-2.16-1.11-.93-1.83-.31-3-1.21C221.93,99.86,220.57,96.56,220.57,96.56Z" style="fill:#263238"></path><path d="M220.4,95.68a13.82,13.82,0,0,1,.53,3.18,6,6,0,0,1-.51,3.06,4.3,4.3,0,0,1-2.4,1.78c-1,.34-2.06.42-3.12.81a3.16,3.16,0,0,0-1.4,1,4.37,4.37,0,0,0-.65,1.57,5.7,5.7,0,0,1-1.2,2.83,3.54,3.54,0,0,1-2.78,1.1c-1,0-2.17-.35-3.19.08,1-.34,2.1.05,3.18.16a3.84,3.84,0,0,0,3.06-1.06,5.83,5.83,0,0,0,1.38-3,3.83,3.83,0,0,1,.58-1.4,2.64,2.64,0,0,1,1.2-.82c.95-.38,2-.48,3.09-.85a5.36,5.36,0,0,0,1.48-.77,3.26,3.26,0,0,0,1.11-1.27,6.12,6.12,0,0,0,.42-3.26A14.75,14.75,0,0,0,220.4,95.68Z" style="fill:#263238"></path><path d="M220.77,96.63a11.4,11.4,0,0,0,.93,2.88,5.23,5.23,0,0,0,2,2.32,7.3,7.3,0,0,0,1.41.59,2.49,2.49,0,0,1,1.09.78,8.13,8.13,0,0,0,.86,1.24,3.29,3.29,0,0,0,1.29.8,3.79,3.79,0,0,1-1.1-1,7.57,7.57,0,0,1-.72-1.29,2.58,2.58,0,0,0-1.24-1,8.58,8.58,0,0,1-1.33-.58,5.64,5.64,0,0,1-1.9-2.09A21.37,21.37,0,0,1,220.77,96.63Z" style="fill:#263238"></path><path d="M206.75,114.24s-3.32-5-5.57-3.79.19,8.33,2.78,9.35a2.66,2.66,0,0,0,3.58-1.36Z" style="fill:#ad6359"></path><path d="M201.93,112.48s-.05.06,0,.07c1.82.78,2.75,2.49,3.39,4.27a1.47,1.47,0,0,0-2.19-.45c-.05,0,0,.11,0,.1a1.62,1.62,0,0,1,1.78.61,7.88,7.88,0,0,1,.84,1.47c.08.16.37.08.32-.11l0,0C206.18,116.07,204.43,112.77,201.93,112.48Z" style="fill:#263238"></path><path d="M228.43,108c-.37,0-.71-.08-1.07-.12a1.74,1.74,0,0,1-1.07-.33.56.56,0,0,1-.07-.68,1.38,1.38,0,0,1,1.32-.45,2,2,0,0,1,1.33.59A.59.59,0,0,1,228.43,108Z" style="fill:#263238"></path><path d="M218.4,108.67c.37-.06.69-.18,1-.27a1.8,1.8,0,0,0,1-.48.56.56,0,0,0,0-.68,1.38,1.38,0,0,0-1.37-.26,2,2,0,0,0-1.23.78A.59.59,0,0,0,218.4,108.67Z" style="fill:#263238"></path><path d="M220.66,112.5s-.08.06-.07.1c.11,1.06,0,2.29-.88,2.7,0,0,0,.07,0,.06C220.88,115.12,220.94,113.48,220.66,112.5Z" style="fill:#263238"></path><path d="M219.64,111.46c-1.71,0-1.61,3.42,0,3.43S221.08,111.47,219.64,111.46Z" style="fill:#263238"></path><path d="M219,111.66c-.29.21-.57.56-.93.61s-.74-.3-1-.64c0,0-.06,0-.06.05,0,.65.29,1.32,1,1.39s1.08-.52,1.23-1.19C219.2,111.76,219.09,111.58,219,111.66Z" style="fill:#263238"></path><path d="M226.75,112s.09,0,.09.09c0,1.06.27,2.27,1.25,2.55,0,0,0,.07,0,.06C226.91,114.65,226.62,113.05,226.75,112Z" style="fill:#263238"></path><path d="M227.62,110.86c1.69-.25,2.07,3.15.5,3.39S226.2,111.07,227.62,110.86Z" style="fill:#263238"></path><path d="M228.35,111c.29.15.59.45.92.44s.61-.42.81-.8c0,0,0,0,0,0,.09.65,0,1.35-.66,1.55s-1-.34-1.26-1C228.16,111.14,228.24,110.94,228.35,111Z" style="fill:#263238"></path><path d="M220.73,121c.2.29.38.68.75.78a2.88,2.88,0,0,0,1.17,0,0,0,0,0,1,0,.06,1.43,1.43,0,0,1-1.44.31,1.14,1.14,0,0,1-.63-1.08C220.61,120.91,220.7,120.91,220.73,121Z" style="fill:#263238"></path><path d="M225.4,117s.28,1.57.32,2.32a4,4,0,0,1-4-1c-.06-.06,0-.15.11-.11a5.35,5.35,0,0,0,3.28.79c0-.21-.58-2.68-.46-2.69a6.67,6.67,0,0,1,1.71.31c-.5-3.3-1.53-6.49-2-9.78a.1.1,0,0,1,.19-.06,53.74,53.74,0,0,1,2.58,10.45C227.26,117.61,225.7,117.11,225.4,117Z" style="fill:#263238"></path><path d="M224.69,119.28a3.85,3.85,0,0,1-1.52,1.24,1.7,1.7,0,0,1-1,.09c-.77-.18-.8-.88-.68-1.48a4,4,0,0,1,.32-.93A5,5,0,0,0,224.69,119.28Z" style="fill:#263238"></path><path d="M223.17,120.52a1.7,1.7,0,0,1-1,.09c-.77-.18-.8-.88-.68-1.48A1.78,1.78,0,0,1,223.17,120.52Z" style="fill:#ff9abb"></path><path d="M205.73,104.26a1.42,1.42,0,0,1,.2,1.58,1.45,1.45,0,0,1-1.84.69,1.53,1.53,0,0,1-.16.58,1.59,1.59,0,0,1-2,.77,1.25,1.25,0,0,1-.14.49,1.45,1.45,0,0,1-1.94.64,1.42,1.42,0,0,1-.66-.69,1.44,1.44,0,0,1-1.88.53,1.36,1.36,0,0,1-.47-.38.61.61,0,0,1-.05.12,1.45,1.45,0,0,1-2.72-.43,1.42,1.42,0,0,1-1.76.39,1.44,1.44,0,0,1-.8-1.23,1.58,1.58,0,0,1-1-.14,1.55,1.55,0,0,1-.8-.93,1.58,1.58,0,0,1-2-1.8,1.42,1.42,0,0,1-.55-.15,1.44,1.44,0,0,1-.71-1.76,1.52,1.52,0,0,1-.68-.17,1.58,1.58,0,0,1-.71-2.13,1.63,1.63,0,0,1,.31-.42.73.73,0,0,1-.23-.09,1.43,1.43,0,0,1-.65-1.93,1.49,1.49,0,0,1,.53-.58,1.58,1.58,0,0,1,0-2.7,1.57,1.57,0,0,1-.26-1.79,1.54,1.54,0,0,1,1.12-.84,1.39,1.39,0,0,1,.05-1.16,1.43,1.43,0,0,1,.91-.75,1.59,1.59,0,0,1,1.68-2.26,1.59,1.59,0,0,1,.15-.67,1.44,1.44,0,0,1,1.76-.72,1.44,1.44,0,0,1,.17-.66,1.57,1.57,0,0,1,2.13-.7,1.21,1.21,0,0,1,.3.2,2.44,2.44,0,0,1,.1-.24,1.59,1.59,0,0,1,2.13-.7,1.46,1.46,0,0,1,.33.22,1.39,1.39,0,0,1,.14-.42,1.58,1.58,0,0,1,2.13-.71,1.54,1.54,0,0,1,.81,1,1.58,1.58,0,0,1,2.34.81,1.44,1.44,0,0,1,2.51.84,1.43,1.43,0,0,1,1.23,0,1.45,1.45,0,0,1,.77,1.49,1.55,1.55,0,0,1,1.28.06,1.59,1.59,0,0,1,.83,1.83,1.62,1.62,0,0,1,.51.14,1.44,1.44,0,0,1,.63,1.94,1.27,1.27,0,0,1-.31.41l.09,0a1.59,1.59,0,0,1,.7,2.14,1.44,1.44,0,0,1-.26.37,1.55,1.55,0,0,1,.36.13,1.44,1.44,0,0,1,.64,1.93,1.46,1.46,0,0,1-.84.73,1.44,1.44,0,0,1,.1,1.46,1.46,1.46,0,0,1-.83.72,1.58,1.58,0,0,1,.33,1.86,1.6,1.6,0,0,1-1.62.86,1.4,1.4,0,0,1,.07,1.39A1.45,1.45,0,0,1,205.73,104.26Z" style="fill:#263238"></path><path d="M321.12,274.11h-6.81c-3-10.19-9-29.59-10.87-36a3,3,0,1,1,5.77-1.63C310.8,242,318.45,264.92,321.12,274.11Z" style="fill:#B3195C"></path><path d="M304.44,242.43c-1.86-5.93-3.72-11.89-5.59-17.84-1.46.07-36.13,8-41.89,8.37-4.34.3-3.84-5,.34-6.09,7.1-1.78,45.76-9.34,45.76-9.34.43,0,2.85,7.06,2.85,7.06,1.66,5.36,3.11,11,4.8,16.37C312,245.1,305.74,246.54,304.44,242.43Z" style="fill:#263238"></path><path d="M303.88,246.58l9.29-3c2-.64,1.15-3.8-.87-3.16l-9.29,3c-2,.64-1.14,3.8.87,3.16Z" style="fill:#263238"></path><path d="M287.52,216h44.33a2.9,2.9,0,0,1,2.9,2.9V219a2.9,2.9,0,0,1-2.9,2.9H287.52a0,0,0,0,1,0,0V216A0,0,0,0,1,287.52,216Z" transform="translate(-37.93 67.64) rotate(-11.7)" style="fill:#263238"></path><path d="M191.14,141.15c-4.51,17.9-5.86,55.29-1.74,59,11.88,10.64,37.62,24,46.84,25.39,4,.59,12.21-25.55,10.58-29.54-1-2.35-37.38-10.58-37.88-12.09S205.55,164,202.7,145C200.31,129.13,192.64,135.18,191.14,141.15Z" style="fill:#ad6359"></path><path d="M241,194.47s12.16,1.34,20.07,2.59c4.42.69,11.88,2.56,14.89,4.56,4.5,3,21.42,18.35,17.79,22.53-3.3,3.79-16.15-11.26-16.15-11.26s14.31,14,9.51,17.86S270,215.66,270,215.66s14.39,14.74,8.81,17.91c-4.21,2.39-16.29-14.12-16.29-14.12s12.28,12.76,8.05,15.4c-4.67,2.93-16.77-11.62-16.77-11.62-11.88,4.92-19.55,2.41-24.79,0C227.73,222.61,241,194.47,241,194.47Z" style="fill:#ad6359"></path><path d="M272.9,207.72c1.75,1.59,3.52,3.18,5.11,4.92s3.13,3.53,4.56,5.41a40,40,0,0,1,4.85,7.83c-2.69-4.78-8.3-11.08-9.9-12.82s-3.09-3.54-4.68-5.28A0,0,0,1,1,272.9,207.72Z" style="fill:#263238"></path><path d="M266.53,213.37c2.13,2.12,4.33,4.15,6.38,6.37s3.76,4.48,5.64,6.82c.14.18,0,.2-.15,0-2-2.26-4-4.21-6-6.45s-3.9-4.56-6-6.72C266.44,213.38,266.5,213.33,266.53,213.37Z" style="fill:#263238"></path><path d="M260.18,217.23a66.73,66.73,0,0,1,9,10.48c.14.19-.05.19-.2,0-2.93-3.54-5.2-6.34-8.91-10.38C260,217.28,260.11,217.16,260.18,217.23Z" style="fill:#263238"></path><path d="M266.46,198.18a35.26,35.26,0,0,1,8.44,2.51,53.35,53.35,0,0,1,7,5.36,66.51,66.51,0,0,1,6.12,6.33,59.67,59.67,0,0,1,5.16,7.09c-1.78-2.31-3.63-4.57-5.6-6.71a79.69,79.69,0,0,0-6.18-6.15,61.22,61.22,0,0,0-6.78-5.42,23.47,23.47,0,0,0-4-1.67C269.26,199,267.86,198.6,266.46,198.18Z" style="fill:#263238"></path><path d="M240.29,192.86l-16.77,31.45s-34.31-16.51-36.81-25-.12-43.54,3.35-55.86,10.3-13,12.85-.12,6.57,39.42,7.51,40.3S240.29,192.86,240.29,192.86Z" style="fill:#B3195C"></path><path d="M233.45,193.5c-1.36,1.94-2.51,4-3.67,6.09s-2.36,4.27-3.49,6.43-2.28,4.31-3.35,6.49-2,4.41-3,6.67a.08.08,0,1,0,.14.06c1.26-2.1,2.49-4.2,3.66-6.36s2.23-4.23,3.34-6.35,2.21-4.25,3.31-6.37,2.27-4.31,3.2-6.56C233.66,193.51,233.52,193.41,233.45,193.5Z" style="fill:#263238"></path><path d="M187.15,158c-.34,1.68-.58,3.39-.78,5.1,0-.06,0-.13,0-.19-.07-.69-.16-1.37-.27-2.05a.14.14,0,0,0-.28,0,13.42,13.42,0,0,0,.09,2.1c0,.35.08.7.14,1.05a5.06,5.06,0,0,0,.17.67c-.28,3-.43,5.92-.59,8.85a117.19,117.19,0,0,0,0,15.79c0,.1.15.09.16,0,.25-5.23.33-10.47.54-15.71.11-2.66.26-5.33.45-8s.43-5.07.48-7.62C187.29,158,187.17,158,187.15,158Z" style="fill:#263238"></path></g></svg>